<svg xmlns="http://www.w3.org/2000/svg" viewBox="0 0 80 47.61"><defs><style>.cls-1{fill:#ffcd34;}</style></defs><g id="Layer_2" data-name="Layer 2"><g id="Layer_1-2" data-name="Layer 1"><polygon class="cls-1" points="75 35.47 60.98 12.16 64.85 12.16 64.85 0 41.5 0 41.5 12.16 45.36 12.16 40 21.06 34.64 12.16 38.5 12.16 38.5 0 15.16 0 15.16 12.16 19.02 12.16 5 35.47 0 35.47 0 47.61 23.8 47.61 23.8 35.47 19.53 35.47 26.84 23.32 29.67 28.04 26.95 28.04 26.95 40.18 53.05 40.18 53.05 28.04 50.34 28.04 53.17 23.32 60.48 35.47 56.2 35.47 56.2 47.61 80 47.61 80 35.47 75 35.47"/></g></g></svg>